# xmcd
#
# Track frame offsets:
#	150
#	10272
#	23454
#	38880
#	48535
#	58827
#	76309
#	85319
#	97960
#	108811
#	124453
#	140967
#	159382
#	173880
#	186887
#	203210
#	214894
#	226212
#	237717
#	253416
#	263428
#	279819
#	292000
#
# Disc length: 4204 seconds
#
# Revision: 0
# Processed by: cddbd v1.5.2PL0 Copyright (c) Steve Scherf et al.
# Submitted via: EZCDAudioConverter 2.1.7.1
#
DISCID=4c106a17
DTITLE=V/A - A Lethal Dose Of Hard Psych
DYEAR=1999
DGENRE=
TTITLE0=Changin' Tymes - Blue Music Box
TTITLE1=Catfish Night and The Blue Express - Deathwise
TTITLE2=The Bondsmen - Our Time To Try
TTITLE3=Flower Power - I Can Feel It
TTITLE4=Adam - Eve
TTITLE5=Aardvarks - Subconscious Train Of Thought
TTITLE6=Factree - Kaleidoscope
TTITLE7=Light - Back Up
TTITLE8=Dutch Masters - The Expectation
TTITLE9=Sidells - Watch Out Mother
TTITLE10=Zoser - Dark Of The Morning
TTITLE11=Tom Dae Turned On - I Shall Walk
TTITLE12=Cardboard Box - Come On Baby
TTITLE13=Legend - Enjoy Yourself
TTITLE14=Crystal Rain - Hey Ma Ma
TTITLE15=Sound System - Take A Look At Yourself
TTITLE16=Lovechain - Step Out Of Your Window You Can Fly
TTITLE17=Inner Light - Temptation
TTITLE18=Mammoth - Mammoth
TTITLE19=Lazy Nickels - 35 Design
TTITLE20=Enoch Smoky - It's Cruel
TTITLE21=Haymarket Riot - Leaving
TTITLE22=Mind Garage - Asphalt Mother
EXTD=
EXTT0=
EXTT1=
EXTT2=
EXTT3=
EXTT4=
EXTT5=
EXTT6=
EXTT7=
EXTT8=
EXTT9=
EXTT10=
EXTT11=
EXTT12=
EXTT13=
EXTT14=
EXTT15=
EXTT16=
EXTT17=
EXTT18=
EXTT19=
EXTT20=
EXTT21=
EXTT22=
PLAYORDER=
